<mxfile host="Electron" agent="Mozilla/5.0 (X11; Linux x86_64) AppleWebKit/537.36 (KHTML, like Gecko) draw.io/24.7.5 Chrome/126.0.6478.183 Electron/31.3.0 Safari/537.36" version="24.7.5">
  <diagram name="PÃ¡gina-1" id="y3os-pO73LexScNfjWLr">
    <mxGraphModel dx="2073" dy="763" grid="1" gridSize="10" guides="1" tooltips="1" connect="1" arrows="1" fold="1" page="1" pageScale="1" pageWidth="827" pageHeight="1169" math="0" shadow="0">
      <root>
        <mxCell id="0" />
        <mxCell id="1" parent="0" />
        <mxCell id="Sar1Kf7CYMwh9PwIAH9e-24" value="" style="rounded=0;whiteSpace=wrap;html=1;" vertex="1" parent="1">
          <mxGeometry x="-150" y="450" width="120" height="60" as="geometry" />
        </mxCell>
        <mxCell id="Sar1Kf7CYMwh9PwIAH9e-6" value="" style="rounded=0;whiteSpace=wrap;html=1;" vertex="1" parent="1">
          <mxGeometry x="240" y="120" width="150" height="280" as="geometry" />
        </mxCell>
        <mxCell id="Sar1Kf7CYMwh9PwIAH9e-1" value="PROYECCION" style="rounded=0;whiteSpace=wrap;html=1;fillColor=#76608a;fontColor=#ffffff;strokeColor=#432D57;" vertex="1" parent="1">
          <mxGeometry x="260" y="140" width="110" height="40" as="geometry" />
        </mxCell>
        <mxCell id="Sar1Kf7CYMwh9PwIAH9e-2" value="PELICULA_&lt;div&gt;SALA&lt;/div&gt;" style="rhombus;whiteSpace=wrap;html=1;" vertex="1" parent="1">
          <mxGeometry x="270" y="210" width="90" height="90" as="geometry" />
        </mxCell>
        <mxCell id="Sar1Kf7CYMwh9PwIAH9e-3" value="&lt;font color=&quot;#000000&quot;&gt;SALA&lt;/font&gt;" style="rounded=0;whiteSpace=wrap;html=1;fillColor=#d80073;strokeColor=#A50040;fontColor=#ffffff;" vertex="1" parent="1">
          <mxGeometry x="260" y="330" width="110" height="40" as="geometry" />
        </mxCell>
        <mxCell id="Sar1Kf7CYMwh9PwIAH9e-4" value="" style="endArrow=none;html=1;rounded=0;entryX=0.5;entryY=1;entryDx=0;entryDy=0;" edge="1" parent="1" source="Sar1Kf7CYMwh9PwIAH9e-2" target="Sar1Kf7CYMwh9PwIAH9e-1">
          <mxGeometry width="50" height="50" relative="1" as="geometry">
            <mxPoint x="130" y="320" as="sourcePoint" />
            <mxPoint x="180" y="270" as="targetPoint" />
          </mxGeometry>
        </mxCell>
        <mxCell id="Sar1Kf7CYMwh9PwIAH9e-5" value="" style="endArrow=none;html=1;rounded=0;entryX=0.5;entryY=1;entryDx=0;entryDy=0;exitX=0.5;exitY=0;exitDx=0;exitDy=0;" edge="1" parent="1" source="Sar1Kf7CYMwh9PwIAH9e-3" target="Sar1Kf7CYMwh9PwIAH9e-2">
          <mxGeometry width="50" height="50" relative="1" as="geometry">
            <mxPoint x="300" y="350" as="sourcePoint" />
            <mxPoint x="320" y="380" as="targetPoint" />
          </mxGeometry>
        </mxCell>
        <mxCell id="Sar1Kf7CYMwh9PwIAH9e-8" value="&lt;font color=&quot;#000000&quot;&gt;TERMINAL&lt;/font&gt;" style="rounded=0;whiteSpace=wrap;html=1;fillColor=#6a00ff;strokeColor=#3700CC;fontColor=#ffffff;" vertex="1" parent="1">
          <mxGeometry x="50" y="240" width="110" height="40" as="geometry" />
        </mxCell>
        <mxCell id="Sar1Kf7CYMwh9PwIAH9e-9" value="&lt;font color=&quot;#000000&quot;&gt;TAQUILLA&lt;/font&gt;" style="rounded=0;whiteSpace=wrap;html=1;fillColor=#e1d5e7;strokeColor=#9673a6;" vertex="1" parent="1">
          <mxGeometry x="640" y="240" width="110" height="40" as="geometry" />
        </mxCell>
        <mxCell id="Sar1Kf7CYMwh9PwIAH9e-10" value="" style="endArrow=none;html=1;rounded=0;exitX=1;exitY=0.5;exitDx=0;exitDy=0;entryX=0;entryY=0.5;entryDx=0;entryDy=0;" edge="1" parent="1" source="Sar1Kf7CYMwh9PwIAH9e-8" target="Sar1Kf7CYMwh9PwIAH9e-6">
          <mxGeometry width="50" height="50" relative="1" as="geometry">
            <mxPoint x="150" y="370" as="sourcePoint" />
            <mxPoint x="200" y="320" as="targetPoint" />
          </mxGeometry>
        </mxCell>
        <mxCell id="Sar1Kf7CYMwh9PwIAH9e-11" value="" style="endArrow=none;html=1;rounded=0;entryX=0;entryY=0.5;entryDx=0;entryDy=0;exitX=1;exitY=0.5;exitDx=0;exitDy=0;" edge="1" parent="1" source="Sar1Kf7CYMwh9PwIAH9e-6" target="Sar1Kf7CYMwh9PwIAH9e-9">
          <mxGeometry width="50" height="50" relative="1" as="geometry">
            <mxPoint x="490" y="410" as="sourcePoint" />
            <mxPoint x="540" y="360" as="targetPoint" />
          </mxGeometry>
        </mxCell>
        <mxCell id="Sar1Kf7CYMwh9PwIAH9e-22" value="&lt;font color=&quot;#000000&quot;&gt;ASIENTO&lt;/font&gt;" style="rounded=0;whiteSpace=wrap;html=1;fillColor=#f8cecc;strokeColor=#b85450;" vertex="1" parent="1">
          <mxGeometry x="-145" y="460" width="110" height="40" as="geometry" />
        </mxCell>
        <mxCell id="Sar1Kf7CYMwh9PwIAH9e-26" value="BITACORA" style="rhombus;whiteSpace=wrap;html=1;" vertex="1" parent="1">
          <mxGeometry x="-40" y="305" width="90" height="90" as="geometry" />
        </mxCell>
        <mxCell id="Sar1Kf7CYMwh9PwIAH9e-28" value="" style="endArrow=none;html=1;rounded=0;exitX=0.5;exitY=0;exitDx=0;exitDy=0;entryX=0;entryY=0.5;entryDx=0;entryDy=0;edgeStyle=orthogonalEdgeStyle;" edge="1" parent="1" source="Sar1Kf7CYMwh9PwIAH9e-24" target="Sar1Kf7CYMwh9PwIAH9e-26">
          <mxGeometry width="50" height="50" relative="1" as="geometry">
            <mxPoint x="-160" y="420" as="sourcePoint" />
            <mxPoint x="-110" y="370" as="targetPoint" />
          </mxGeometry>
        </mxCell>
        <mxCell id="Sar1Kf7CYMwh9PwIAH9e-29" value="" style="endArrow=classic;html=1;rounded=0;entryX=0;entryY=0.5;entryDx=0;entryDy=0;" edge="1" parent="1" source="Sar1Kf7CYMwh9PwIAH9e-26" target="Sar1Kf7CYMwh9PwIAH9e-3">
          <mxGeometry width="50" height="50" relative="1" as="geometry">
            <mxPoint x="170" y="480" as="sourcePoint" />
            <mxPoint x="220" y="430" as="targetPoint" />
          </mxGeometry>
        </mxCell>
        <mxCell id="Sar1Kf7CYMwh9PwIAH9e-30" value="&lt;font color=&quot;#000000&quot;&gt;PELICULA&lt;/font&gt;" style="rounded=0;whiteSpace=wrap;html=1;fillColor=#6a00ff;strokeColor=#3700CC;fontColor=#ffffff;" vertex="1" parent="1">
          <mxGeometry x="80" y="140" width="110" height="40" as="geometry" />
        </mxCell>
        <mxCell id="Sar1Kf7CYMwh9PwIAH9e-31" value="" style="endArrow=classic;html=1;rounded=0;entryX=1;entryY=0.5;entryDx=0;entryDy=0;exitX=0;exitY=0.5;exitDx=0;exitDy=0;" edge="1" parent="1" source="Sar1Kf7CYMwh9PwIAH9e-1" target="Sar1Kf7CYMwh9PwIAH9e-30">
          <mxGeometry width="50" height="50" relative="1" as="geometry">
            <mxPoint y="270" as="sourcePoint" />
            <mxPoint x="50" y="220" as="targetPoint" />
          </mxGeometry>
        </mxCell>
        <mxCell id="Sar1Kf7CYMwh9PwIAH9e-32" value="&lt;font color=&quot;#000000&quot;&gt;VENTA&lt;/font&gt;" style="rounded=0;whiteSpace=wrap;html=1;fillColor=#6a00ff;strokeColor=#3700CC;fontColor=#ffffff;" vertex="1" parent="1">
          <mxGeometry x="450" y="500" width="110" height="40" as="geometry" />
        </mxCell>
        <mxCell id="Sar1Kf7CYMwh9PwIAH9e-37" value="" style="rhombus;whiteSpace=wrap;html=1;" vertex="1" parent="1">
          <mxGeometry x="180" y="475" width="90" height="90" as="geometry" />
        </mxCell>
        <mxCell id="Sar1Kf7CYMwh9PwIAH9e-38" value="" style="endArrow=none;html=1;rounded=0;entryX=0;entryY=0.5;entryDx=0;entryDy=0;" edge="1" parent="1" target="Sar1Kf7CYMwh9PwIAH9e-32">
          <mxGeometry width="50" height="50" relative="1" as="geometry">
            <mxPoint x="270" y="520" as="sourcePoint" />
            <mxPoint x="400" y="510" as="targetPoint" />
          </mxGeometry>
        </mxCell>
        <mxCell id="Sar1Kf7CYMwh9PwIAH9e-39" value="" style="endArrow=classic;html=1;rounded=0;entryX=0.5;entryY=1;entryDx=0;entryDy=0;exitX=0;exitY=0.5;exitDx=0;exitDy=0;edgeStyle=orthogonalEdgeStyle;" edge="1" parent="1" source="Sar1Kf7CYMwh9PwIAH9e-37" target="Sar1Kf7CYMwh9PwIAH9e-8">
          <mxGeometry width="50" height="50" relative="1" as="geometry">
            <mxPoint x="80" y="370" as="sourcePoint" />
            <mxPoint x="130" y="320" as="targetPoint" />
          </mxGeometry>
        </mxCell>
        <mxCell id="Sar1Kf7CYMwh9PwIAH9e-40" value="" style="rhombus;whiteSpace=wrap;html=1;" vertex="1" parent="1">
          <mxGeometry x="660" y="475" width="90" height="90" as="geometry" />
        </mxCell>
        <mxCell id="Sar1Kf7CYMwh9PwIAH9e-41" value="" style="endArrow=classic;html=1;rounded=0;entryX=0.608;entryY=0.958;entryDx=0;entryDy=0;entryPerimeter=0;exitX=0.5;exitY=0;exitDx=0;exitDy=0;" edge="1" parent="1" source="Sar1Kf7CYMwh9PwIAH9e-40" target="Sar1Kf7CYMwh9PwIAH9e-9">
          <mxGeometry width="50" height="50" relative="1" as="geometry">
            <mxPoint x="580" y="570" as="sourcePoint" />
            <mxPoint x="630" y="520" as="targetPoint" />
          </mxGeometry>
        </mxCell>
        <mxCell id="Sar1Kf7CYMwh9PwIAH9e-42" value="" style="endArrow=none;html=1;rounded=0;entryX=0;entryY=0.5;entryDx=0;entryDy=0;exitX=1;exitY=0.5;exitDx=0;exitDy=0;" edge="1" parent="1" source="Sar1Kf7CYMwh9PwIAH9e-32" target="Sar1Kf7CYMwh9PwIAH9e-40">
          <mxGeometry width="50" height="50" relative="1" as="geometry">
            <mxPoint x="580" y="560" as="sourcePoint" />
            <mxPoint x="630" y="510" as="targetPoint" />
          </mxGeometry>
        </mxCell>
        <mxCell id="Sar1Kf7CYMwh9PwIAH9e-43" value="" style="rhombus;whiteSpace=wrap;html=1;" vertex="1" parent="1">
          <mxGeometry x="460" y="310" width="90" height="90" as="geometry" />
        </mxCell>
        <mxCell id="Sar1Kf7CYMwh9PwIAH9e-44" value="" style="endArrow=none;html=1;rounded=0;entryX=0.5;entryY=1;entryDx=0;entryDy=0;exitX=0.5;exitY=0;exitDx=0;exitDy=0;" edge="1" parent="1" source="Sar1Kf7CYMwh9PwIAH9e-32" target="Sar1Kf7CYMwh9PwIAH9e-43">
          <mxGeometry width="50" height="50" relative="1" as="geometry">
            <mxPoint x="440" y="480" as="sourcePoint" />
            <mxPoint x="490" y="430" as="targetPoint" />
          </mxGeometry>
        </mxCell>
        <mxCell id="Sar1Kf7CYMwh9PwIAH9e-45" value="" style="endArrow=none;html=1;rounded=0;exitX=0.5;exitY=0;exitDx=0;exitDy=0;entryX=1;entryY=0.5;entryDx=0;entryDy=0;edgeStyle=orthogonalEdgeStyle;" edge="1" parent="1" source="Sar1Kf7CYMwh9PwIAH9e-43" target="Sar1Kf7CYMwh9PwIAH9e-1">
          <mxGeometry width="50" height="50" relative="1" as="geometry">
            <mxPoint x="500" y="280" as="sourcePoint" />
            <mxPoint x="550" y="230" as="targetPoint" />
          </mxGeometry>
        </mxCell>
      </root>
    </mxGraphModel>
  </diagram>
</mxfile>
